<svg xmlns="http://www.w3.org/2000/svg" width="18.7" height="18.695" viewBox="0 0 18.7 18.695">
  <g id="Grupo_82209" data-name="Grupo 82209" transform="translate(-791.882 -371.83)">
    <path id="Trazado_115721" data-name="Trazado 115721" d="M802.249,389.2a.3.3,0,0,0-.012.061c.041.538-.13.621-.614.6-.312-.013-.625,0-.938,0-.344,0-.45-.105-.453-.444,0-.068,0-.136,0-.213H795.2a1.706,1.706,0,0,1-.864,1.13,1.585,1.585,0,0,1-1.009.176,1.671,1.671,0,0,1-1.429-1.472c-.1-.818.353-1.442,1.32-1.83v-5.023c-.109,0-.211,0-.312,0a.326.326,0,0,1-.345-.339q-.01-.657,0-1.314a.329.329,0,0,1,.358-.347c.1,0,.191,0,.3,0v-5.035a1.7,1.7,0,0,1-1.13-.862,1.582,1.582,0,0,1-.177-1.008,1.671,1.671,0,0,1,1.472-1.429c.819-.1,1.442.351,1.831,1.32h5.024c0-.108,0-.21,0-.311a.325.325,0,0,1,.338-.346q.657-.01,1.314,0a.329.329,0,0,1,.349.357c0,.1,0,.191,0,.3h5.035a1.7,1.7,0,0,1,.863-1.129,1.585,1.585,0,0,1,1.009-.177,1.67,1.67,0,0,1,1.432,1.492c.083.815-.364,1.428-1.322,1.81v5.024c.108,0,.21,0,.311,0a.325.325,0,0,1,.346.338q.011.657,0,1.314a.33.33,0,0,1-.357.349c-.1,0-.191,0-.3,0v5.034a1.694,1.694,0,0,1,1.129.863,1.581,1.581,0,0,1,.177,1.008,1.67,1.67,0,0,1-1.493,1.431c-.815.082-1.427-.363-1.81-1.321Zm-8.351-7V387.2a1.757,1.757,0,0,1,1.306,1.3h5.029c0-.11,0-.207,0-.3a.329.329,0,0,1,.357-.349q.647-.008,1.293,0a.329.329,0,0,1,.35.355c0,.1,0,.2,0,.3h5.037a1.712,1.712,0,0,1,1.3-1.3V382.18c-.105,0-.2,0-.3,0a.329.329,0,0,1-.359-.347q-.01-.657,0-1.314a.325.325,0,0,1,.344-.34c.1-.005.2,0,.313,0v-5.035a1.708,1.708,0,0,1-1.3-1.292h-5.037c0,.11,0,.206,0,.3a.33.33,0,0,1-.357.35q-.647.008-1.293,0a.329.329,0,0,1-.35-.356c0-.1,0-.2,0-.3H795.2a1.711,1.711,0,0,1-1.3,1.3v5.033h.212c.34,0,.444.108.445.452,0,.313-.01.626,0,.938.019.476-.054.655-.6.614A.338.338,0,0,0,793.9,382.194Z" transform="translate(0 0)" fill="#f57c00"/>
    <path id="Trazado_115722" data-name="Trazado 115722" d="M867.984,446.605c-.711,0-1.4,0-2.1,0a.291.291,0,0,0-.146.058.878.878,0,0,0-.119.116c-.53.529-.53.529-1.273.49a.335.335,0,0,1-.358-.371q0-1.293,0-2.586c0-.257.128-.379.39-.379q4.953,0,9.907,0a.338.338,0,0,1,.382.388q0,1.282,0,2.565c0,.258-.127.376-.388.383-.731.019-.735.023-1.245-.5a.516.516,0,0,0-.418-.17c-.577.01-1.154,0-1.731,0h-.222v.223q0,2.69,0,5.38a.261.261,0,0,0,.172.285c.316.142.622.308.933.461a.382.382,0,0,1,.234.382c0,.3,0,.6,0,.9a.34.34,0,0,1-.39.38q-2.284,0-4.568,0c-.257,0-.378-.128-.381-.389,0-.285.006-.57,0-.855a.41.41,0,0,1,.262-.427c.314-.147.626-.3.93-.468a.3.3,0,0,0,.14-.212c.008-1.849.006-3.7.005-5.547C867.992,446.688,867.988,446.661,867.984,446.605Z" transform="translate(-68.095 -68.096)" fill="#f57c00"/>
  </g>
</svg>
