<?xml version="1.0" encoding="UTF-8" standalone="no"?>
<!DOCTYPE svg PUBLIC "-//W3C//DTD SVG 1.1//EN" "http://www.w3.org/Graphics/SVG/1.1/DTD/svg11.dtd">
<svg width="100%" height="100%" viewBox="0 0 2367 2184" version="1.1" xmlns="http://www.w3.org/2000/svg" xmlns:xlink="http://www.w3.org/1999/xlink" xml:space="preserve" xmlns:serif="http://www.serif.com/" style="fill-rule:evenodd;clip-rule:evenodd;stroke-linejoin:round;stroke-miterlimit:2;">
    <g id="Mesa-de-trabajo1" serif:id="Mesa de trabajo1" transform="matrix(1,0,0,1,-365.854,-169.621)">
        <rect x="365.854" y="169.621" width="2366.67" height="2183.33" style="fill:none;"/>
        <clipPath id="_clip1">
            <rect x="365.854" y="169.621" width="2366.67" height="2183.33"/>
        </clipPath>
        <g clip-path="url(#_clip1)">
            <g transform="matrix(8.33333,0,0,8.33333,76191.7,80695.2)">
                <g id="Grupo_93232">
                    <g id="Grupo_93231">
                        <g id="Tipos-de-tipografias" transform="matrix(1,0,0,1,-9099,-9663)">
                            <rect x="0" y="0" width="284" height="262" style="fill:white;"/>
                        </g>
                        <g id="Grupo_93230" transform="matrix(1,0,0,1,-10085.9,-13814.3)">
                            <g id="Elipse_4321" transform="matrix(1,0,0,1,1217.62,4222.31)">
                                <circle cx="10.79" cy="10.79" r="10.79" style="fill:rgb(250,236,33);"/>
                            </g>
                            <g id="Elipse_4322" transform="matrix(1,0,0,1,1165.47,4308.64)">
                                <circle cx="10.79" cy="10.79" r="10.79" style="fill:rgb(250,236,33);"/>
                            </g>
                            <g id="Elipse_4323" transform="matrix(1,0,0,1,1052.17,4297.85)">
                                <circle cx="10.79" cy="10.79" r="10.79" style="fill:rgb(250,236,33);"/>
                            </g>
                            <g id="Elipse_4324" transform="matrix(1,0,0,1,1018,4297.85)">
                                <circle cx="10.79" cy="10.79" r="10.79" style="fill:rgb(250,236,33);"/>
                            </g>
                            <g id="Elipse_4325" transform="matrix(1,0,0,1,1090.84,4351.8)">
                                <circle cx="10.79" cy="10.79" r="10.79" style="fill:rgb(250,236,33);"/>
                            </g>
                            <g id="Trazado_120524" transform="matrix(1,0,0,1,1050.42,4233.83)">
                                <path d="M40.256,-11.1L16.206,-11.1L11.618,0L-0.666,0L22.422,-51.8L34.262,-51.8L57.424,0L44.844,0L40.256,-11.1ZM36.482,-20.2L28.268,-40.034L20.054,-20.2L36.482,-20.2Z" style="fill-rule:nonzero;"/>
                            </g>
                            <g id="Grupo_93226" transform="matrix(1,0,0,1,1045.88,4248.73)">
                                <rect id="Rect치ngulo_35551" x="0" y="0" width="63.844" height="14.593" style="fill:rgb(64,231,239);"/>
                                <g id="Trazado_120531" transform="matrix(1,0,0,1,8.421,9.589)">
                                    <path d="M2.817,0.108C2.328,0.11 1.842,0.043 1.372,-0.092C0.969,-0.198 0.59,-0.377 0.252,-0.621L0.752,-1.721C1.045,-1.511 1.37,-1.35 1.715,-1.244C2.075,-1.126 2.452,-1.065 2.831,-1.064C3.148,-1.042 3.465,-1.106 3.749,-1.248C3.932,-1.343 4.047,-1.532 4.049,-1.738C4.051,-1.883 3.986,-2.021 3.873,-2.112C3.74,-2.22 3.587,-2.3 3.423,-2.35C3.24,-2.41 2.992,-2.477 2.68,-2.55C2.281,-2.64 1.887,-2.755 1.501,-2.892C1.196,-3.005 0.925,-3.194 0.713,-3.441C0.481,-3.723 0.362,-4.081 0.378,-4.446C0.375,-4.8 0.48,-5.147 0.678,-5.441C0.903,-5.759 1.216,-6.005 1.578,-6.148C2.042,-6.334 2.54,-6.423 3.04,-6.409C3.437,-6.41 3.833,-6.361 4.219,-6.265C4.572,-6.18 4.91,-6.04 5.22,-5.85L4.77,-4.743C4.241,-5.058 3.639,-5.229 3.024,-5.238C2.711,-5.259 2.399,-5.189 2.124,-5.038C1.941,-4.929 1.829,-4.73 1.831,-4.516C1.83,-4.3 1.966,-4.107 2.169,-4.034C2.501,-3.896 2.846,-3.792 3.199,-3.724C3.598,-3.634 3.992,-3.519 4.378,-3.382C4.681,-3.27 4.952,-3.084 5.166,-2.842C5.397,-2.562 5.514,-2.205 5.494,-1.842C5.497,-1.49 5.392,-1.146 5.194,-0.856C4.968,-0.539 4.656,-0.293 4.294,-0.149C3.824,0.037 3.322,0.124 2.817,0.108ZM8.343,-4.914C8.965,-4.955 9.581,-4.764 10.071,-4.378C10.498,-3.954 10.718,-3.363 10.671,-2.763L10.671,0L9.36,0L9.36,-0.6C9.032,-0.119 8.462,0.14 7.884,0.072C7.551,0.08 7.221,0.016 6.916,-0.117C6.662,-0.227 6.444,-0.408 6.29,-0.639C6.145,-0.864 6.07,-1.127 6.074,-1.395C6.058,-1.811 6.249,-2.209 6.583,-2.457C7.052,-2.75 7.602,-2.886 8.153,-2.844L9.27,-2.844C9.286,-3.109 9.184,-3.368 8.991,-3.551C8.752,-3.734 8.454,-3.822 8.154,-3.8C7.896,-3.8 7.639,-3.759 7.394,-3.678C7.164,-3.607 6.949,-3.496 6.759,-3.349L6.259,-4.33C6.548,-4.528 6.87,-4.674 7.209,-4.762C7.578,-4.864 7.96,-4.915 8.343,-4.914ZM8.235,-0.873C8.459,-0.869 8.68,-0.926 8.874,-1.039C9.062,-1.149 9.203,-1.323 9.274,-1.529L9.274,-2.029L8.307,-2.029C7.731,-2.029 7.443,-1.84 7.443,-1.462C7.437,-1.293 7.516,-1.132 7.654,-1.035C7.825,-0.92 8.029,-0.863 8.235,-0.873ZM14.886,-4.914C15.423,-4.938 15.948,-4.743 16.34,-4.374C16.736,-3.94 16.937,-3.361 16.894,-2.774L16.894,0L15.494,0L15.494,-2.556C15.518,-2.864 15.428,-3.17 15.242,-3.416C15.053,-3.613 14.786,-3.717 14.513,-3.699C14.197,-3.714 13.89,-3.594 13.667,-3.37C13.438,-3.098 13.325,-2.747 13.352,-2.393L13.352,0L11.952,0L11.952,-4.842L13.293,-4.842L13.293,-4.275C13.485,-4.483 13.722,-4.645 13.986,-4.748C14.273,-4.86 14.578,-4.917 14.886,-4.914ZM19.791,0.072C19.393,0.072 18.997,0.022 18.612,-0.077C18.288,-0.151 17.978,-0.278 17.694,-0.451L18.162,-1.459C18.405,-1.309 18.669,-1.196 18.945,-1.122C19.237,-1.037 19.54,-0.993 19.845,-0.991C20.439,-0.991 20.736,-1.138 20.736,-1.432C20.734,-1.576 20.633,-1.7 20.493,-1.732C20.25,-1.809 20,-1.861 19.746,-1.885C19.415,-1.931 19.087,-2 18.765,-2.092C18.509,-2.169 18.278,-2.312 18.095,-2.506C17.893,-2.74 17.792,-3.044 17.812,-3.352C17.808,-3.645 17.901,-3.932 18.077,-4.167C18.277,-4.421 18.546,-4.613 18.851,-4.721C19.235,-4.861 19.642,-4.929 20.051,-4.921C20.394,-4.921 20.737,-4.883 21.072,-4.809C21.367,-4.75 21.651,-4.645 21.914,-4.498L21.446,-3.498C21.019,-3.739 20.536,-3.863 20.046,-3.858C19.814,-3.872 19.582,-3.829 19.371,-3.732C19.24,-3.676 19.152,-3.55 19.146,-3.408C19.145,-3.26 19.246,-3.129 19.389,-3.093C19.641,-3.012 19.9,-2.955 20.163,-2.922C20.491,-2.871 20.816,-2.801 21.135,-2.711C21.39,-2.637 21.62,-2.495 21.8,-2.3C21.997,-2.071 22.097,-1.774 22.079,-1.472C22.082,-1.183 21.987,-0.9 21.809,-0.672C21.603,-0.42 21.33,-0.231 21.022,-0.127C20.627,0.012 20.21,0.08 19.791,0.072ZM22.761,-3.1L25.308,-3.1L25.308,-1.975L22.761,-1.975L22.761,-3.1ZM28.461,0.1C27.973,0.102 27.486,0.035 27.017,-0.1C26.614,-0.205 26.235,-0.384 25.897,-0.627L26.392,-1.727C26.685,-1.517 27.01,-1.356 27.355,-1.25C27.715,-1.132 28.092,-1.071 28.471,-1.07C28.788,-1.048 29.105,-1.112 29.389,-1.254C29.572,-1.349 29.687,-1.538 29.689,-1.744C29.691,-1.889 29.626,-2.027 29.513,-2.118C29.38,-2.226 29.227,-2.306 29.063,-2.356C28.88,-2.416 28.632,-2.483 28.32,-2.556C27.921,-2.646 27.527,-2.761 27.141,-2.898C26.836,-3.011 26.566,-3.2 26.354,-3.447C26.124,-3.731 26.007,-4.09 26.025,-4.455C26.022,-4.809 26.127,-5.156 26.325,-5.45C26.55,-5.768 26.863,-6.014 27.225,-6.157C27.69,-6.343 28.188,-6.432 28.688,-6.418C29.085,-6.419 29.481,-6.37 29.867,-6.274C30.223,-6.19 30.563,-6.05 30.875,-5.86L30.425,-4.753C29.896,-5.068 29.294,-5.239 28.679,-5.248C28.366,-5.269 28.054,-5.199 27.779,-5.048C27.596,-4.939 27.484,-4.739 27.487,-4.526C27.486,-4.31 27.622,-4.117 27.825,-4.044C28.157,-3.906 28.502,-3.802 28.855,-3.734C29.254,-3.644 29.648,-3.529 30.034,-3.392C30.337,-3.28 30.608,-3.094 30.822,-2.852C31.053,-2.572 31.17,-2.215 31.15,-1.852C31.153,-1.5 31.048,-1.156 30.85,-0.866C30.624,-0.549 30.312,-0.303 29.95,-0.159C29.477,0.032 28.968,0.123 28.458,0.108L28.461,0.1ZM36.774,-2.4C36.774,-2.382 36.765,-2.256 36.747,-2.022L33.084,-2.022C33.142,-1.734 33.31,-1.479 33.552,-1.311C33.823,-1.13 34.144,-1.038 34.47,-1.05C34.698,-1.046 34.925,-1.084 35.14,-1.162C35.343,-1.243 35.529,-1.364 35.684,-1.518L36.431,-0.708C35.916,-0.161 35.181,0.127 34.431,0.075C33.929,0.085 33.433,-0.025 32.982,-0.245C32.58,-0.442 32.243,-0.75 32.01,-1.132C31.779,-1.521 31.661,-1.967 31.668,-2.419C31.663,-2.869 31.78,-3.312 32.008,-3.7C32.229,-4.077 32.55,-4.385 32.935,-4.591C33.34,-4.807 33.794,-4.917 34.253,-4.91C34.701,-4.916 35.143,-4.811 35.54,-4.604C35.918,-4.404 36.23,-4.099 36.44,-3.726C36.667,-3.321 36.782,-2.864 36.774,-2.4ZM34.263,-3.852C33.973,-3.861 33.688,-3.765 33.463,-3.582C33.241,-3.395 33.098,-3.132 33.063,-2.844L35.448,-2.844C35.41,-3.13 35.268,-3.392 35.048,-3.578C34.828,-3.761 34.549,-3.859 34.263,-3.852ZM39.051,-4.2C39.223,-4.437 39.459,-4.621 39.731,-4.731C40.044,-4.856 40.38,-4.918 40.717,-4.911L40.717,-3.611C40.561,-3.623 40.456,-3.629 40.402,-3.629C40.054,-3.649 39.713,-3.527 39.457,-3.291C39.21,-3.014 39.086,-2.648 39.115,-2.278L39.115,0L37.715,0L37.715,-4.842L39.056,-4.842L39.051,-4.2ZM41.551,-4.839L42.951,-4.839L42.951,0L41.551,0L41.551,-4.839ZM42.251,-5.514C42.02,-5.504 41.794,-5.585 41.621,-5.739C41.463,-5.881 41.374,-6.085 41.378,-6.297C41.374,-6.509 41.463,-6.713 41.621,-6.855C41.794,-7.009 42.02,-7.09 42.251,-7.08C42.481,-7.09 42.706,-7.013 42.881,-6.864C43.039,-6.729 43.128,-6.531 43.124,-6.324C43.13,-6.105 43.041,-5.893 42.881,-5.744C42.71,-5.589 42.485,-5.508 42.255,-5.517L42.251,-5.514ZM45.797,-4.731L47.039,-4.731L47.039,-3.651L45.837,-3.651L45.837,0L44.437,0L44.437,-3.654L43.69,-3.654L43.69,-4.734L44.437,-4.734L44.437,-4.95C44.412,-5.437 44.59,-5.913 44.928,-6.264C45.304,-6.606 45.803,-6.782 46.31,-6.75C46.512,-6.751 46.713,-6.728 46.91,-6.682C47.077,-6.646 47.237,-6.581 47.382,-6.489L47.013,-5.472C46.847,-5.587 46.648,-5.647 46.446,-5.643C46.02,-5.643 45.807,-5.41 45.807,-4.943L45.797,-4.731Z" style="fill-rule:nonzero;"/>
                                </g>
                            </g>
                            <g id="Grupo_93227" transform="matrix(1,0,0,1,1162.77,4384.52)">
                                <rect id="Rect치ngulo_35552" x="0" y="0" width="66.541" height="14.593" style="fill:rgb(64,231,239);"/>
                                <g id="Trazado_120529" transform="matrix(1,0,0,1,8.771,10.796)">
                                    <path d="M5.625,-1.17L5.625,0L0.747,0L0.747,-6.3L5.508,-6.3L5.508,-5.13L2.2,-5.13L2.2,-3.762L5.121,-3.762L5.121,-2.628L2.2,-2.628L2.2,-1.17L5.625,-1.17ZM9.7,0L8.64,-1.485L7.542,0L6.012,0L7.875,-2.439L6.075,-4.839L7.65,-4.839L8.676,-3.429L9.729,-4.842L11.223,-4.842L9.423,-2.475L11.3,0L9.7,0ZM14.92,-4.914C15.457,-4.938 15.982,-4.743 16.374,-4.374C16.77,-3.94 16.971,-3.361 16.928,-2.774L16.928,0L15.528,0L15.528,-2.556C15.552,-2.864 15.462,-3.17 15.276,-3.416C15.087,-3.613 14.82,-3.717 14.547,-3.699C14.231,-3.714 13.924,-3.594 13.701,-3.37C13.472,-3.098 13.359,-2.747 13.386,-2.393L13.386,0L11.986,0L11.986,-6.678L13.386,-6.678L13.386,-4.338C13.578,-4.527 13.808,-4.673 14.061,-4.765C14.337,-4.866 14.628,-4.917 14.922,-4.914L14.92,-4.914ZM18.196,-4.842L19.596,-4.842L19.596,0L18.2,0L18.196,-4.842ZM18.896,-5.517C18.665,-5.507 18.439,-5.588 18.266,-5.742C18.108,-5.884 18.019,-6.088 18.023,-6.3C18.019,-6.512 18.108,-6.716 18.266,-6.858C18.439,-7.012 18.665,-7.093 18.896,-7.083C19.126,-7.093 19.351,-7.016 19.526,-6.867C19.684,-6.732 19.773,-6.534 19.769,-6.327C19.775,-6.108 19.686,-5.896 19.526,-5.747C19.356,-5.591 19.131,-5.509 18.9,-5.517L18.896,-5.517ZM23.765,-4.917C24.197,-4.921 24.623,-4.812 25,-4.6C25.365,-4.396 25.666,-4.094 25.868,-3.727C26.085,-3.325 26.193,-2.874 26.183,-2.418C26.193,-1.961 26.085,-1.51 25.868,-1.108C25.666,-0.743 25.365,-0.442 25,-0.239C24.624,-0.03 24.201,0.077 23.771,0.072C23.194,0.11 22.631,-0.123 22.25,-0.558L22.25,0L20.907,0L20.907,-6.678L22.307,-6.678L22.307,-4.329C22.684,-4.729 23.22,-4.944 23.769,-4.914L23.765,-4.917ZM23.526,-1.08C23.86,-1.069 24.183,-1.202 24.412,-1.445C24.652,-1.712 24.777,-2.063 24.759,-2.422C24.777,-2.781 24.652,-3.132 24.412,-3.399C24.182,-3.641 23.86,-3.774 23.526,-3.763C23.192,-3.774 22.87,-3.641 22.64,-3.399C22.4,-3.132 22.275,-2.781 22.293,-2.422C22.275,-2.063 22.4,-1.712 22.64,-1.445C22.869,-1.202 23.192,-1.069 23.526,-1.08ZM27.117,-4.842L28.517,-4.842L28.517,0L27.117,0L27.117,-4.842ZM27.817,-5.517C27.586,-5.507 27.36,-5.588 27.187,-5.742C27.029,-5.884 26.94,-6.088 26.944,-6.3C26.94,-6.512 27.029,-6.716 27.187,-6.858C27.36,-7.012 27.586,-7.093 27.817,-7.083C28.047,-7.093 28.272,-7.016 28.447,-6.867C28.605,-6.732 28.694,-6.534 28.69,-6.327C28.696,-6.108 28.607,-5.896 28.447,-5.747C28.276,-5.591 28.05,-5.508 27.819,-5.517L27.817,-5.517ZM32.166,0.072C31.684,0.08 31.207,-0.03 30.776,-0.248C30.379,-0.448 30.045,-0.756 29.813,-1.135C29.579,-1.523 29.459,-1.969 29.466,-2.422C29.459,-2.875 29.579,-3.321 29.813,-3.709C30.045,-4.088 30.379,-4.395 30.776,-4.595C31.207,-4.812 31.684,-4.922 32.166,-4.914C32.632,-4.925 33.092,-4.815 33.503,-4.595C33.875,-4.392 34.168,-4.07 34.336,-3.681L33.246,-3.1C33.043,-3.514 32.618,-3.774 32.157,-3.766C31.817,-3.777 31.488,-3.646 31.248,-3.406C30.999,-3.142 30.869,-2.787 30.888,-2.425C30.869,-2.063 30.999,-1.708 31.248,-1.444C31.488,-1.204 31.817,-1.073 32.157,-1.084C32.618,-1.073 33.046,-1.334 33.246,-1.75L34.335,-1.156C34.162,-0.774 33.87,-0.458 33.502,-0.256C33.093,-0.032 32.632,0.082 32.166,0.072ZM35.145,-4.842L36.545,-4.842L36.545,0L35.145,0L35.145,-4.842ZM35.845,-5.517C35.614,-5.507 35.388,-5.588 35.215,-5.742C35.057,-5.884 34.968,-6.088 34.972,-6.3C34.968,-6.512 35.057,-6.716 35.215,-6.858C35.388,-7.012 35.614,-7.093 35.845,-7.083C36.075,-7.093 36.3,-7.016 36.475,-6.867C36.633,-6.732 36.722,-6.534 36.718,-6.327C36.724,-6.108 36.635,-5.896 36.475,-5.747C36.304,-5.591 36.078,-5.508 35.847,-5.517L35.845,-5.517ZM40.158,0.072C39.681,0.08 39.209,-0.03 38.785,-0.248C38.392,-0.45 38.064,-0.757 37.836,-1.135C37.605,-1.524 37.487,-1.97 37.494,-2.422C37.487,-2.874 37.605,-3.32 37.836,-3.709C38.064,-4.087 38.393,-4.394 38.785,-4.595C39.209,-4.813 39.681,-4.922 40.158,-4.914C40.633,-4.922 41.103,-4.813 41.526,-4.595C41.917,-4.393 42.244,-4.086 42.471,-3.709C42.702,-3.32 42.82,-2.874 42.813,-2.422C42.82,-1.97 42.702,-1.524 42.471,-1.135C42.244,-0.758 41.917,-0.451 41.526,-0.248C41.103,-0.03 40.633,0.08 40.158,0.072ZM40.158,-1.08C40.492,-1.069 40.815,-1.202 41.045,-1.445C41.285,-1.712 41.41,-2.063 41.392,-2.422C41.41,-2.781 41.285,-3.132 41.045,-3.399C40.815,-3.641 40.492,-3.774 40.158,-3.763C39.823,-3.773 39.499,-3.641 39.267,-3.399C39.024,-3.133 38.898,-2.781 38.916,-2.422C38.898,-2.063 39.024,-1.711 39.267,-1.445C39.499,-1.203 39.823,-1.07 40.158,-1.08ZM40.536,-6.759L42.048,-6.759L40.419,-5.459L39.319,-5.459L40.536,-6.759ZM46.692,-4.914C47.229,-4.938 47.754,-4.743 48.146,-4.374C48.542,-3.939 48.742,-3.36 48.699,-2.774L48.699,0L47.299,0L47.299,-2.556C47.323,-2.864 47.233,-3.17 47.047,-3.416C46.858,-3.613 46.591,-3.717 46.318,-3.699C46.002,-3.714 45.695,-3.594 45.472,-3.37C45.243,-3.098 45.13,-2.747 45.157,-2.393L45.157,0L43.757,0L43.757,-4.842L45.09,-4.842L45.09,-4.275C45.282,-4.483 45.519,-4.645 45.783,-4.748C46.072,-4.861 46.381,-4.918 46.692,-4.914Z" style="fill-rule:nonzero;"/>
                                </g>
                            </g>
                            <g id="Grupo_93228" transform="matrix(1,0,0,1,1041.38,4388.11)">
                                <rect id="Rect치ngulo_35553" x="0" y="0" width="71.937" height="14.593" style="fill:rgb(250,236,33);"/>
                                <g id="Trazado_120528" transform="matrix(1,0,0,1,9.469,10.796)">
                                    <path d="M6.48,0L6.471,-3.78L4.617,-0.666L3.96,-0.666L2.115,-3.7L2.115,0L0.747,0L0.747,-6.3L1.953,-6.3L4.311,-2.385L6.633,-6.3L7.833,-6.3L7.848,0L6.48,0ZM11.2,-4.914C11.822,-4.955 12.438,-4.764 12.928,-4.378C13.355,-3.954 13.575,-3.363 13.528,-2.763L13.528,0L12.213,0L12.213,-0.6C11.886,-0.118 11.315,0.143 10.737,0.075C10.404,0.083 10.074,0.019 9.769,-0.114C9.515,-0.224 9.298,-0.406 9.144,-0.636C8.999,-0.861 8.924,-1.124 8.928,-1.392C8.912,-1.808 9.103,-2.206 9.437,-2.454C9.906,-2.747 10.457,-2.883 11.008,-2.841L12.124,-2.841C12.14,-3.106 12.038,-3.365 11.845,-3.548C11.606,-3.73 11.308,-3.818 11.008,-3.795C10.749,-3.795 10.493,-3.754 10.247,-3.673C10.018,-3.602 9.803,-3.491 9.613,-3.344L9.113,-4.325C9.402,-4.523 9.723,-4.669 10.062,-4.757C10.432,-4.861 10.815,-4.913 11.2,-4.914ZM11.088,-0.873C11.312,-0.869 11.533,-0.926 11.727,-1.039C11.915,-1.149 12.056,-1.323 12.127,-1.529L12.127,-2.029L11.16,-2.029C10.584,-2.029 10.296,-1.84 10.296,-1.462C10.29,-1.293 10.37,-1.132 10.508,-1.035C10.679,-0.92 10.882,-0.863 11.088,-0.873ZM17.739,-4.914C18.276,-4.938 18.801,-4.743 19.193,-4.374C19.589,-3.939 19.789,-3.36 19.746,-2.774L19.746,0L18.346,0L18.346,-2.556C18.37,-2.864 18.28,-3.17 18.094,-3.416C17.905,-3.613 17.638,-3.717 17.365,-3.699C17.049,-3.714 16.742,-3.594 16.519,-3.37C16.29,-3.098 16.177,-2.747 16.204,-2.393L16.204,0L14.8,0L14.8,-4.842L16.141,-4.842L16.141,-4.275C16.333,-4.483 16.57,-4.645 16.834,-4.748C17.122,-4.861 17.429,-4.917 17.739,-4.914ZM25.893,-4.842L25.893,0L24.561,0L24.561,-0.576C24.378,-0.368 24.15,-0.203 23.895,-0.094C23.63,0.018 23.345,0.075 23.058,0.073C22.501,0.102 21.955,-0.096 21.546,-0.476C21.145,-0.92 20.944,-1.509 20.988,-2.105L20.988,-4.842L22.388,-4.842L22.388,-2.313C22.388,-1.533 22.715,-1.143 23.369,-1.143C23.674,-1.13 23.969,-1.25 24.179,-1.472C24.402,-1.747 24.511,-2.096 24.485,-2.449L24.485,-4.842L25.893,-4.842ZM28.827,0.072C28.429,0.072 28.033,0.022 27.648,-0.077C27.324,-0.151 27.014,-0.277 26.73,-0.45L27.2,-1.458C27.443,-1.308 27.707,-1.195 27.983,-1.121C28.275,-1.036 28.578,-0.992 28.883,-0.99C29.477,-0.99 29.774,-1.137 29.774,-1.431C29.772,-1.575 29.671,-1.699 29.531,-1.731C29.288,-1.808 29.038,-1.86 28.784,-1.884C28.453,-1.93 28.125,-1.999 27.803,-2.091C27.547,-2.168 27.316,-2.311 27.133,-2.505C26.931,-2.739 26.83,-3.043 26.85,-3.351C26.846,-3.644 26.939,-3.931 27.115,-4.166C27.315,-4.42 27.584,-4.612 27.889,-4.72C28.273,-4.86 28.68,-4.928 29.089,-4.92C29.432,-4.92 29.775,-4.882 30.11,-4.808C30.405,-4.749 30.689,-4.644 30.952,-4.497L30.484,-3.497C30.057,-3.738 29.574,-3.862 29.084,-3.857C28.852,-3.871 28.62,-3.828 28.409,-3.731C28.278,-3.675 28.19,-3.549 28.184,-3.407C28.183,-3.259 28.284,-3.128 28.427,-3.092C28.679,-3.011 28.938,-2.954 29.201,-2.921C29.529,-2.87 29.854,-2.8 30.173,-2.71C30.425,-2.635 30.652,-2.494 30.83,-2.301C31.027,-2.072 31.127,-1.775 31.109,-1.473C31.112,-1.184 31.017,-0.901 30.839,-0.673C30.633,-0.421 30.36,-0.232 30.052,-0.128C29.659,0.011 29.244,0.079 28.827,0.072ZM34.317,0.072C33.835,0.08 33.358,-0.03 32.927,-0.248C32.53,-0.448 32.196,-0.756 31.964,-1.135C31.73,-1.523 31.61,-1.969 31.617,-2.422C31.61,-2.875 31.73,-3.321 31.964,-3.709C32.196,-4.088 32.53,-4.395 32.927,-4.595C33.358,-4.812 33.835,-4.922 34.317,-4.914C34.783,-4.925 35.243,-4.815 35.654,-4.595C36.026,-4.392 36.319,-4.07 36.487,-3.681L35.4,-3.1C35.197,-3.514 34.772,-3.774 34.311,-3.766C33.971,-3.777 33.642,-3.646 33.402,-3.406C33.153,-3.142 33.023,-2.787 33.042,-2.425C33.023,-2.063 33.153,-1.708 33.402,-1.444C33.642,-1.204 33.971,-1.073 34.311,-1.084C34.772,-1.072 35.198,-1.332 35.4,-1.746L36.489,-1.152C36.316,-0.77 36.024,-0.454 35.656,-0.252C35.246,-0.028 34.784,0.083 34.317,0.072ZM38.637,-4.2C38.809,-4.437 39.045,-4.621 39.317,-4.731C39.63,-4.856 39.966,-4.918 40.303,-4.911L40.303,-3.611C40.147,-3.623 40.042,-3.629 39.988,-3.629C39.64,-3.649 39.299,-3.527 39.043,-3.291C38.798,-3.016 38.674,-2.653 38.7,-2.286L38.7,0L37.3,0L37.3,-4.842L38.641,-4.842L38.637,-4.2ZM41.137,-4.839L42.537,-4.839L42.537,0L41.137,0L41.137,-4.839ZM41.837,-5.514C41.606,-5.504 41.38,-5.585 41.207,-5.739C41.049,-5.881 40.96,-6.085 40.964,-6.297C40.96,-6.509 41.049,-6.713 41.207,-6.855C41.38,-7.009 41.606,-7.09 41.837,-7.08C42.067,-7.09 42.292,-7.013 42.467,-6.864C42.625,-6.729 42.714,-6.531 42.71,-6.324C42.716,-6.105 42.627,-5.893 42.467,-5.744C42.296,-5.589 42.071,-5.508 41.841,-5.517L41.837,-5.514ZM46.967,-0.231C46.815,-0.122 46.644,-0.044 46.462,0C46.254,0.052 46.041,0.078 45.827,0.077C45.342,0.108 44.863,-0.05 44.491,-0.364C44.155,-0.71 43.983,-1.183 44.019,-1.664L44.019,-3.654L43.272,-3.654L43.272,-4.734L44.019,-4.734L44.019,-5.913L45.419,-5.913L45.419,-4.734L46.625,-4.734L46.625,-3.654L45.423,-3.654L45.423,-1.683C45.412,-1.511 45.469,-1.342 45.581,-1.211C45.699,-1.095 45.861,-1.034 46.026,-1.044C46.23,-1.038 46.43,-1.101 46.593,-1.224L46.967,-0.231ZM49.712,-4.911C50.334,-4.952 50.95,-4.761 51.44,-4.375C51.867,-3.951 52.087,-3.36 52.04,-2.76L52.04,0L50.733,0L50.733,-0.6C50.406,-0.118 49.835,0.143 49.257,0.075C48.925,0.083 48.595,0.018 48.29,-0.114C48.036,-0.224 47.819,-0.406 47.665,-0.636C47.52,-0.861 47.445,-1.124 47.449,-1.392C47.433,-1.808 47.623,-2.206 47.957,-2.454C48.426,-2.747 48.976,-2.883 49.527,-2.841L50.643,-2.841C50.659,-3.106 50.557,-3.365 50.364,-3.548C50.125,-3.73 49.827,-3.818 49.527,-3.795C49.269,-3.795 49.012,-3.754 48.767,-3.673C48.537,-3.602 48.322,-3.491 48.132,-3.344L47.632,-4.325C47.921,-4.523 48.243,-4.669 48.582,-4.757C48.951,-4.86 49.333,-4.913 49.716,-4.914L49.712,-4.911ZM49.608,-0.873C49.832,-0.869 50.053,-0.926 50.247,-1.039C50.435,-1.149 50.576,-1.323 50.647,-1.529L50.647,-2.029L49.68,-2.029C49.104,-2.029 48.816,-1.84 48.816,-1.462C48.81,-1.293 48.889,-1.132 49.027,-1.035C49.198,-0.92 49.402,-0.863 49.608,-0.873Z" style="fill-rule:nonzero;"/>
                                </g>
                            </g>
                            <g id="Grupo_93229" transform="matrix(1,0,0,1,1180.76,4248.73)">
                                <rect id="Rect치ngulo_35554" x="0" y="0" width="36.867" height="14.593" style="fill:rgb(250,236,33);"/>
                                <g id="Trazado_120530" transform="matrix(1,0,0,1,7.434,9.589)">
                                    <path d="M2.817,0.108C2.328,0.11 1.842,0.043 1.372,-0.092C0.969,-0.198 0.59,-0.377 0.252,-0.621L0.752,-1.721C1.045,-1.511 1.37,-1.35 1.715,-1.244C2.075,-1.126 2.452,-1.065 2.831,-1.064C3.148,-1.042 3.465,-1.106 3.749,-1.248C3.932,-1.343 4.047,-1.532 4.049,-1.738C4.051,-1.883 3.986,-2.021 3.873,-2.112C3.74,-2.22 3.587,-2.3 3.423,-2.35C3.24,-2.41 2.992,-2.477 2.68,-2.55C2.281,-2.64 1.887,-2.755 1.501,-2.892C1.196,-3.005 0.925,-3.194 0.713,-3.441C0.481,-3.723 0.362,-4.081 0.378,-4.446C0.375,-4.8 0.48,-5.147 0.678,-5.441C0.903,-5.759 1.216,-6.005 1.578,-6.148C2.042,-6.334 2.54,-6.423 3.04,-6.409C3.437,-6.41 3.833,-6.361 4.219,-6.265C4.572,-6.18 4.91,-6.04 5.22,-5.85L4.77,-4.743C4.241,-5.058 3.639,-5.229 3.024,-5.238C2.711,-5.259 2.399,-5.189 2.124,-5.038C1.941,-4.929 1.829,-4.73 1.831,-4.516C1.83,-4.3 1.966,-4.107 2.169,-4.034C2.501,-3.896 2.846,-3.792 3.199,-3.724C3.598,-3.634 3.992,-3.519 4.378,-3.382C4.681,-3.27 4.952,-3.084 5.166,-2.842C5.397,-2.562 5.514,-2.205 5.494,-1.842C5.497,-1.49 5.392,-1.146 5.194,-0.856C4.968,-0.539 4.656,-0.293 4.294,-0.149C3.824,0.037 3.322,0.124 2.817,0.108ZM11.133,-2.4C11.133,-2.382 11.124,-2.256 11.106,-2.022L7.443,-2.022C7.501,-1.734 7.669,-1.479 7.911,-1.311C8.182,-1.13 8.503,-1.038 8.829,-1.05C9.058,-1.047 9.285,-1.086 9.5,-1.166C9.703,-1.247 9.889,-1.368 10.044,-1.522L10.791,-0.712C10.276,-0.165 9.541,0.123 8.791,0.071C8.289,0.081 7.793,-0.029 7.342,-0.249C6.94,-0.446 6.603,-0.754 6.37,-1.136C6.14,-1.525 6.022,-1.97 6.03,-2.421C6.024,-2.87 6.141,-3.312 6.367,-3.7C6.588,-4.077 6.909,-4.385 7.294,-4.591C7.7,-4.807 8.153,-4.917 8.613,-4.91C9.06,-4.918 9.503,-4.814 9.9,-4.608C10.278,-4.408 10.59,-4.103 10.8,-3.73C11.027,-3.324 11.142,-2.865 11.133,-2.4ZM8.622,-3.852C8.332,-3.861 8.047,-3.765 7.822,-3.582C7.6,-3.395 7.457,-3.132 7.422,-2.844L9.81,-2.844C9.772,-3.13 9.63,-3.392 9.41,-3.578C9.189,-3.762 8.909,-3.859 8.622,-3.852ZM13.41,-4.2C13.582,-4.437 13.817,-4.621 14.089,-4.731C14.402,-4.856 14.738,-4.918 15.075,-4.911L15.075,-3.611C14.919,-3.623 14.814,-3.629 14.76,-3.629C14.412,-3.649 14.071,-3.527 13.815,-3.291C13.568,-3.014 13.444,-2.648 13.473,-2.278L13.473,0L12.073,0L12.073,-4.842L13.41,-4.842L13.41,-4.2ZM15.91,-4.839L17.31,-4.839L17.31,0L15.91,0L15.91,-4.839ZM16.61,-5.514C16.379,-5.504 16.153,-5.585 15.98,-5.739C15.822,-5.881 15.733,-6.085 15.737,-6.297C15.733,-6.509 15.822,-6.713 15.98,-6.855C16.153,-7.009 16.379,-7.09 16.61,-7.08C16.84,-7.09 17.065,-7.013 17.24,-6.864C17.398,-6.729 17.487,-6.531 17.483,-6.324C17.489,-6.105 17.4,-5.893 17.24,-5.744C17.069,-5.589 16.844,-5.508 16.614,-5.517L16.61,-5.514ZM20.156,-4.731L21.4,-4.731L21.4,-3.651L20.2,-3.651L20.2,0L18.8,0L18.8,-3.654L18.053,-3.654L18.053,-4.734L18.8,-4.734L18.8,-4.95C18.775,-5.437 18.952,-5.913 19.29,-6.264C19.666,-6.606 20.165,-6.782 20.672,-6.75C20.874,-6.751 21.075,-6.728 21.272,-6.682C21.44,-6.646 21.6,-6.581 21.745,-6.489L21.376,-5.472C21.21,-5.587 21.011,-5.647 20.809,-5.643C20.383,-5.643 20.17,-5.41 20.17,-4.943L20.156,-4.731Z" style="fill-rule:nonzero;"/>
                                </g>
                            </g>
                            <g id="Trazado_120525" transform="matrix(1,0,0,1,1176.21,4235.12)">
                                <path d="M22.538,-51.086L28.529,-51.086L44.429,-8.377C44.881,-6.796 45.689,-5.339 46.79,-4.118C47.691,-3.387 48.832,-3.016 49.99,-3.076L50.8,-3.076L50.8,0L32.62,0L32.62,-3.076C33.206,-3.125 33.78,-3.149 34.341,-3.149C35.128,-3.076 35.922,-3.202 36.648,-3.515C37.29,-3.868 37.696,-4.54 37.71,-5.273C37.513,-6.565 37.169,-7.831 36.685,-9.045L33.3,-18.933L14.8,-18.933L10.811,-7.874C10.49,-7.115 10.281,-6.313 10.188,-5.494C10.179,-5.037 10.313,-4.588 10.573,-4.212C10.834,-3.842 11.197,-3.556 11.617,-3.388C12.303,-3.169 13.022,-3.076 13.741,-3.113C14.4,-3.113 14.937,-3.101 15.352,-3.076L15.352,0L0.081,0L0.081,-3.076C1.118,-3.018 2.157,-3.162 3.139,-3.5C3.79,-3.804 4.351,-4.271 4.769,-4.855C5.529,-6.091 6.143,-7.411 6.6,-8.788L22.538,-51.086ZM16.089,-22.522L31.865,-22.522L24.005,-44.495L16.089,-22.522Z" style="fill-rule:nonzero;"/>
                            </g>
                            <g id="Trazado_120526" transform="matrix(1,0,0,1,1019.75,4353.74)">
                                <path d="M94.868,-59.718C96.298,-59.337 97.357,-58.116 97.532,-56.647C97.746,-54.671 97.57,-52.672 97.014,-50.764C96.302,-48.032 95.412,-45.35 94.35,-42.735C93.166,-39.75 91.871,-36.605 90.465,-33.3C89.059,-29.995 87.678,-26.603 86.321,-23.125C85.011,-19.782 83.876,-16.374 82.921,-12.913C82.047,-9.79 81.452,-6.595 81.145,-3.367C80.843,-0.612 81.134,2.176 81.996,4.81C82.3,5.617 82.044,6.534 81.367,7.067C80.636,7.742 79.764,8.248 78.814,8.547C77.874,8.864 76.872,8.952 75.891,8.806C75.077,8.787 74.379,8.199 74.222,7.4C73.665,4.711 73.552,1.949 73.889,-0.777C74.245,-4.057 74.826,-7.308 75.628,-10.508C76.467,-13.912 77.49,-17.365 78.699,-20.868C79.908,-24.371 81.116,-27.762 82.325,-31.043C83.534,-34.324 84.681,-37.37 85.766,-40.182C86.851,-42.994 87.702,-45.387 88.319,-47.36C88.829,-48.791 89.141,-50.285 89.244,-51.8C89.244,-52.787 88.751,-53.058 87.764,-52.614C86.426,-51.995 85.171,-51.212 84.027,-50.283C82.67,-49.222 81.264,-48.014 79.809,-46.657C78.354,-45.3 76.911,-43.845 75.48,-42.291C74.049,-40.737 72.742,-39.257 71.558,-37.851C70.374,-36.445 69.35,-35.138 68.487,-33.929C67.83,-33.04 67.225,-32.113 66.674,-31.154C66.131,-30.069 65.391,-28.613 64.454,-26.788C63.517,-24.963 62.505,-22.989 61.42,-20.868C60.335,-18.747 59.175,-16.551 57.942,-14.282C56.709,-12.013 55.512,-9.867 54.353,-7.844C53.194,-5.821 52.084,-3.996 51.023,-2.368C50.209,-1.074 49.307,0.162 48.323,1.332C47.976,1.777 47.55,2.154 47.065,2.442C46.612,2.72 46.127,2.943 45.622,3.108C45.181,3.254 44.712,3.292 44.253,3.219C43.819,3.151 43.425,2.927 43.143,2.59C42.55,1.85 42.439,0.653 42.809,-1C43.283,-2.95 43.953,-4.846 44.809,-6.661C45.771,-8.782 46.93,-11.027 48.287,-13.395C49.644,-15.763 51.012,-18.031 52.392,-20.2C53.773,-22.371 55.081,-24.332 56.314,-26.083C57.547,-27.834 58.509,-29.155 59.2,-30.044C59.644,-31.031 60.285,-32.461 61.124,-34.336C61.963,-36.211 62.826,-38.283 63.714,-40.552C64.602,-42.819 65.453,-45.174 66.267,-47.619C67.081,-50.064 67.722,-52.321 68.191,-54.39C68.621,-56.12 68.832,-57.898 68.82,-59.681C68.771,-61.136 68.327,-62.061 67.488,-62.456C66.549,-62.805 65.52,-62.831 64.565,-62.53C63.347,-62.188 62.178,-61.691 61.087,-61.05C59.82,-60.321 58.597,-59.518 57.424,-58.645C56.191,-57.732 55.057,-56.82 54.024,-55.907C52.991,-54.994 52.091,-54.156 51.324,-53.391C50.778,-52.872 50.268,-52.316 49.8,-51.726C48.637,-47.098 47.14,-42.56 45.323,-38.147C43.424,-33.485 41.29,-28.885 38.923,-24.347C36.556,-19.809 34.065,-15.467 31.45,-11.322C28.835,-7.178 26.269,-3.429 23.75,-0.074C19.557,5.55 15.98,9.238 13.02,10.989C10.06,12.74 7.57,13.024 5.55,11.84C3.675,10.755 3.242,8.055 4.25,3.74C5.258,-0.575 7.934,-6.482 12.279,-13.983C14.443,-17.743 16.804,-21.387 19.351,-24.9C21.842,-28.329 24.409,-31.622 27.051,-34.779C29.693,-37.936 32.369,-40.946 35.08,-43.807C37.793,-46.668 40.531,-49.456 43.294,-52.169C43.751,-53.701 44.049,-55.276 44.182,-56.869C44.291,-58.093 44.228,-59.326 43.997,-60.532C43.842,-61.414 43.488,-62.249 42.961,-62.974C42.552,-63.526 41.963,-63.919 41.296,-64.084C39.675,-64.367 38.008,-64.24 36.449,-63.714C34.481,-63.099 32.592,-62.255 30.821,-61.2C28.749,-59.98 26.77,-58.607 24.901,-57.093C22.89,-55.478 20.964,-53.762 19.129,-51.95C17.317,-50.167 15.601,-48.289 13.986,-46.326C12.514,-44.554 11.177,-42.674 9.986,-40.702C9.564,-40.071 8.813,-39.738 8.062,-39.851C7.218,-39.927 6.411,-40.234 5.731,-40.739C5.042,-41.226 4.514,-41.91 4.218,-42.7C3.927,-43.522 4.129,-44.442 4.736,-45.068C7.855,-49.055 11.309,-52.768 15.059,-56.168C18.166,-58.999 21.536,-61.526 25.123,-63.716C27.982,-65.482 31.087,-66.816 34.336,-67.675C36.895,-68.384 39.59,-68.448 42.18,-67.86C43.167,-67.594 44.122,-67.222 45.029,-66.75C45.995,-66.254 46.891,-65.632 47.693,-64.9C48.497,-64.172 49.184,-63.323 49.728,-62.384C50.269,-61.451 50.621,-60.42 50.764,-59.35C53.444,-61.799 56.328,-64.015 59.385,-65.973C61.717,-67.514 64.259,-68.71 66.933,-69.525C68.78,-70.144 70.778,-70.157 72.633,-69.562C74.266,-68.879 75.469,-67.442 75.852,-65.714C76.463,-63.053 76.501,-60.291 75.963,-57.614C75.174,-53.238 73.921,-48.959 72.226,-44.849C72.867,-45.589 73.731,-46.514 74.816,-47.624C75.901,-48.734 77.109,-49.893 78.44,-51.1C79.773,-52.309 81.179,-53.505 82.658,-54.689C84.052,-55.813 85.522,-56.84 87.058,-57.76C88.369,-58.559 89.773,-59.192 91.239,-59.647C92.413,-60.039 93.679,-60.064 94.868,-59.718ZM20.794,-7.548C22.718,-10.215 24.63,-13.138 26.529,-16.317C28.428,-19.496 30.241,-22.678 31.968,-25.863C33.695,-29.045 35.273,-32.116 36.704,-35.076C38.135,-38.036 39.319,-40.626 40.256,-42.846C38.529,-41.119 36.629,-39.084 34.556,-36.741C32.483,-34.398 30.374,-31.882 28.229,-29.193C26.083,-26.504 23.962,-23.692 21.865,-20.757C19.768,-17.822 17.881,-14.899 16.204,-11.988C14.724,-9.423 13.466,-7.056 12.43,-4.888C11.552,-3.093 10.775,-1.251 10.1,0.629C9.658,1.655 9.455,2.769 9.508,3.885C9.631,4.552 10.1,4.626 10.914,4.107C12.278,3.065 13.508,1.86 14.578,0.518C16.206,-1.357 18.278,-4.045 20.794,-7.548Z" style="fill-rule:nonzero;"/>
                            </g>
                            <g id="Trazado_120527" transform="matrix(1,0,0,1,1176.71,4354.52)">
                                <path d="M13.875,0L-4.625,-37L9.25,-37L0,-55.5L43.938,-55.5L39.313,-46.25L16.188,-46.25L20.813,-37L34.688,-37L30.063,-27.75L11.563,-27.75L25.438,0L13.875,0Z" style="fill-rule:nonzero;"/>
                            </g>
                            <g id="Trazado_120522" transform="matrix(1,0,0,1,-9.374,-1.035)">
                                <path d="M1121.79,4182.88L1111,4182.88L1111,4172.09L1121.79,4182.88Z" style="fill:rgb(250,236,33);fill-rule:nonzero;"/>
                            </g>
                            <g id="Trazado_120523" transform="matrix(1,0,0,1,-10.281,-0.228)">
                                <path d="M1130.79,4174.88L1120,4174.88L1120,4164.09L1130.79,4174.88Z" style="fill:rgb(250,236,33);fill-rule:nonzero;"/>
                            </g>
                        </g>
                    </g>
                </g>
            </g>
        </g>
    </g>
</svg>
