<svg xmlns="http://www.w3.org/2000/svg" width="567" height="297" viewBox="0 0 567 297">
  <g id="Grupo_93236" data-name="Grupo 93236" transform="translate(6338 -2474)">
    <g id="Grupo_93235" data-name="Grupo 93235">
      <rect id="Rect치ngulo_35535" data-name="Rect치ngulo 35535" width="50" height="297" transform="translate(-5821 2474)" fill="#fdd835"/>
      <path id="Icon_ionic-ios-arrow-back" data-name="Icon ionic-ios-arrow-back" d="M4.048,11.742l8.888-8.881A1.679,1.679,0,1,0,10.559.49L.489,10.553A1.675,1.675,0,0,0,.44,12.868L10.552,23A1.679,1.679,0,1,0,12.93,20.63Z" transform="translate(-5789.53 2634.111) rotate(180)" fill="#12263f"/>
    </g>
    <g id="Grupo_93234" data-name="Grupo 93234">
      <rect id="Rect치ngulo_35536" data-name="Rect치ngulo 35536" width="50" height="297" transform="translate(-6288 2771) rotate(180)" fill="#fdd835"/>
      <path id="Icon_ionic-ios-arrow-back-2" data-name="Icon ionic-ios-arrow-back" d="M4.048,11.742l8.888-8.881A1.679,1.679,0,1,0,10.559.49L.489,10.553A1.675,1.675,0,0,0,.44,12.868L10.552,23A1.679,1.679,0,1,0,12.93,20.63Z" transform="translate(-6319.47 2610.889)" fill="#12263f"/>
    </g>
  </g>
</svg>
